<?xml version="1.0" encoding="utf-8"?>
<!-- Generator: Adobe Illustrator 23.0.1, SVG Export Plug-In . SVG Version: 6.00 Build 0)  -->
<svg version="1.1" id="Layer_1" xmlns="http://www.w3.org/2000/svg" xmlns:xlink="http://www.w3.org/1999/xlink" x="0px" y="0px"
	 width="240px" height="240px" viewBox="0 0 240 240" style="enable-background:new 0 0 240 240;" xml:space="preserve">
<style type="text/css">
	.st0{fill:#787878;}
	.st1{opacity:0.91;}
	.st2{fill:#00FF00;}
</style>
<g>
	<g>
		<path class="st0" d="M200,40H40c-11,0-19.9,9-19.9,20L20,180c0,11,9,20,20,20h160c11,0,20-9,20-20V60C220,49,211,40,200,40z"/>
		<g class="st1">
			
				<image style="overflow:visible;opacity:0.25;" width="184" height="184" xlink:href="A3F17A7C67392B6.png"  transform="matrix(1 0 0 1 10 28)">
			</image>
			<g>
				<path class="st2" d="M160,200H40c-11,0-20-9-20-20V60c0-11,9-20,20-20h120c11,0,20,9,20,20v120C180,191,171,200,160,200z"/>
			</g>
		</g>
	</g>
</g>
</svg>
